<svg aria-hidden="true" style="position: absolute; width: 0; height: 0; overflow: hidden;" version="1.1" xmlns="http://www.w3.org/2000/svg" xmlns:xlink="http://www.w3.org/1999/xlink">
<defs>
<symbol id="bag_icon" viewBox="0 0 26 32">
<path d="M24 8h-4.8v-1.6c0-1.697-0.674-3.325-1.875-4.525s-2.828-1.875-4.525-1.875-3.325 0.674-4.525 1.875c-1.2 1.2-1.875 2.828-1.875 4.525v1.6h-4.8c-0.424 0-0.831 0.169-1.131 0.469s-0.469 0.707-0.469 1.131v17.6c0 1.273 0.506 2.494 1.406 3.394s2.121 1.406 3.394 1.406h16c1.273 0 2.494-0.506 3.394-1.406s1.406-2.121 1.406-3.394v-17.6c0-0.424-0.169-0.831-0.469-1.131s-0.707-0.469-1.131-0.469zM9.6 6.4c0-0.849 0.337-1.663 0.937-2.263s1.414-0.937 2.263-0.937c0.849 0 1.663 0.337 2.263 0.937s0.937 1.414 0.937 2.263v1.6h-6.4v-1.6zM22.4 27.2c0 0.424-0.169 0.831-0.469 1.131s-0.707 0.469-1.131 0.469h-16c-0.424 0-0.831-0.169-1.131-0.469s-0.469-0.707-0.469-1.131v-16h3.2v1.6c0 0.424 0.169 0.831 0.469 1.131s0.707 0.469 1.131 0.469c0.424 0 0.831-0.169 1.131-0.469s0.469-0.707 0.469-1.131v-1.6h6.4v1.6c0 0.424 0.169 0.831 0.469 1.131s0.707 0.469 1.131 0.469c0.424 0 0.831-0.169 1.131-0.469s0.469-0.707 0.469-1.131v-1.6h3.2v16z"></path>
</symbol>
</defs>
</svg>
